<svg xmlns="http://www.w3.org/2000/svg" width="48" height="48" viewBox="0 0 48 48" fill="none"><path d="M36.728 34.7278L24 47.4558L11.272 34.7278C8.75469 32.2105 7.04037 29.0032 6.34586 25.5115C5.65134 22.0199 6.00781 18.4007 7.3702 15.1116C8.73258 11.8226 11.0397 9.01139 13.9998 7.03353C16.9598 5.05568 20.44 4 24 4C27.5601 4 31.0402 5.05568 34.0002 7.03353C36.9603 9.01139 39.2674 11.8226 40.6298 15.1116C41.9922 18.4007 42.3487 22.0199 41.6542 25.5115C40.9596 29.0032 39.2453 32.2105 36.728 34.7278ZM24 29.9998C26.1217 29.9998 28.1566 29.157 29.6569 27.6567C31.1572 26.1564 32 24.1216 32 21.9998C32 19.8781 31.1572 17.8433 29.6569 16.343C28.1566 14.8427 26.1217 13.9998 24 13.9998C21.8783 13.9998 19.8434 14.8427 18.3432 16.343C16.8429 17.8433 16 19.8781 16 21.9998C16 24.1216 16.8429 26.1564 18.3432 27.6567C19.8434 29.157 21.8783 29.9998 24 29.9998ZM24 25.9998C22.9391 25.9998 21.9217 25.5784 21.1716 24.8283C20.4214 24.0781 20 23.0607 20 21.9998C20 20.939 20.4214 19.9216 21.1716 19.1714C21.9217 18.4213 22.9391 17.9998 24 17.9998C25.0609 17.9998 26.0783 18.4213 26.8284 19.1714C27.5786 19.9216 28 20.939 28 21.9998C28 23.0607 27.5786 24.0781 26.8284 24.8283C26.0783 25.5784 25.0609 25.9998 24 25.9998Z" fill="white"></path></svg>