<svg xmlns="http://www.w3.org/2000/svg" width="16" height="16" viewBox="0 0 16 16"><g id="Group_24" data-name="Group 24" transform="translate(-2147 -1417)"><path id="Path_1" data-name="Path 1" d="M5.5,11.5a.5.5,0,0,1-.5-.4L3.829,5.2A1.5,1.5,0,0,0,2.359,4H1.5a.5.5,0,1,1,0-1h.86A2.5,2.5,0,0,1,4.808,5L6,10.9a.5.5,0,0,1-.4.6Z" transform="translate(2146 1414)" fill="#292930"></path><path id="Path_2" data-name="Path 2" d="M8.241,19.5h-1a2.411,2.411,0,0,1-2.212-2.469,2.493,2.493,0,0,1,2.008-2.694l9.909-1.044.867-5.044H6.626a.587.587,0,0,1-.538-.625A.587.587,0,0,1,6.626,7H18.467a.514.514,0,0,1,.414.231.7.7,0,0,1,.124.519L17.929,14a.575.575,0,0,1-.479.5L7.132,15.589A1.272,1.272,0,0,0,6.04,16.983a1.23,1.23,0,0,0,1.2,1.269h1a.632.632,0,0,1,0,1.25Z" transform="translate(2143.986 1411.999)" fill="#292930"></path><path id="Path_3" data-name="Path 3" d="M24,26a2,2,0,1,1,2-2A2,2,0,0,1,24,26Zm0-3a1,1,0,1,0,1,1A1,1,0,0,0,24,23Z" transform="translate(2136.495 1407.002)" fill="#292930"></path><path id="Path_4" data-name="Path 4" d="M12,26a2,2,0,1,1,2-2A2,2,0,0,1,12,26Zm0-3a1,1,0,1,0,1,1A1,1,0,0,0,12,23Z" transform="translate(2141.906 1407.002)" fill="#292930"></path><path id="Path_5" data-name="Path 5" d="M19.5,26h-3a.5.5,0,1,1,0-1h3a.5.5,0,0,1,0,1Z" transform="translate(2139.177 1405.501)" fill="#292930"></path></g></svg>