<svg width="24" height="24" viewBox="0 0 24 24" fill="none" xmlns="http://www.w3.org/2000/svg"><path d="M18 18C16.9038 18 16 18.8846 16 20C16 21.0962 16.8846 22 18 22C19.0962 22 20 21.1154 20 20C19.9808 18.9038 19.0962 18 18 18Z" fill="currentColor"></path><path d="M21.2662 5.36093C21.2212 5.36093 21.1539 5.33775 21.0865 5.33775H6.94004L6.71549 3.78477C6.58076 2.7649 5.72748 2 4.71702 2H3C2.5 2 2 2.5 2 3C2 3.5 2.5 4 3 4C3 4 4.60475 4 4.71702 4C4.8293 4 4.91911 4.09272 4.94157 4.20861C4.96402 4.3245 6.33376 13.8444 6.33376 13.8444C6.5134 15.0728 7.54632 16 8.75887 16H18.1C19.2677 16 20.2781 15.1424 20.5252 13.9603L21.9847 6.42715C22.0745 5.9404 21.7602 5.45364 21.2662 5.36093Z" fill="currentColor"></path><path d="M8.96972 18C7.82803 18.058 6.96192 18.9855 7.00129 20.087C7.04066 21.1498 7.92645 22 9.00909 22H9.04846C10.1705 21.942 11.0563 21.0145 10.9972 19.913C10.9578 18.8502 10.0524 18 8.96972 18Z" fill="currentColor"></path></svg>